<?xml version="1.0" encoding="utf-8"?>
<!-- Generator: Adobe Illustrator 23.0.1, SVG Export Plug-In . SVG Version: 6.00 Build 0)  -->
<svg version="1.1"
	 id="Livello_1" xmlns:dc="http://purl.org/dc/elements/1.1/" xmlns:rdf="http://www.w3.org/1999/02/22-rdf-syntax-ns#"
	 xmlns="http://www.w3.org/2000/svg" xmlns:xlink="http://www.w3.org/1999/xlink" x="0px" y="0px" width="86.466px"
	 height="45.424px" viewBox="0 0 86.466 45.424" enable-background="new 0 0 86.466 45.424" xml:space="preserve">
<g>
	<path fill-rule="evenodd" clip-rule="evenodd" fill="#00A7B3" d="M78.217,39.793c-6.672,0-12.197-4.742-13.242-11.478h12.574
		c1.394,0,4.359,0.298,4.359,0.298v-5.536c0,0-2.937,0.217-4.576,0.217H65.033c1.177-6.546,6.628-11.135,13.184-11.135
		c3.395,0,7.669,1.584,7.669,1.584l0.112-5.827c0,0-3.046-1.16-7.781-1.16c-11.075,0-20.697,8.477-20.697,19.218
		c0,11.57,9.623,19.449,20.697,19.449c5.122,0,8.249-1.384,8.249-1.384l-0.115-6.065C86.351,37.975,82.528,39.793,78.217,39.793"/>
	<path fill-rule="evenodd" clip-rule="evenodd" fill="#00A7B3" d="M40.604,45.241c0,0,0.485-2.785,0.485-5.258V13.317h-1.804
		c-2.463,0-6.268,0.034-9.097,0.305l-0.183-6.187h29.245l-0.183,6.187c-2.829-0.271-6.635-0.305-9.097-0.305H47.7v26.667
		c0,2.473,0.489,5.258,0.489,5.258H40.604"/>
	<path fill-rule="evenodd" clip-rule="evenodd" fill="#00A7B3" d="M86.052,4.355c-2.184-0.624-4.972-1.038-7.377-1.038
		c-6.421,0-11.932,1.96-16.546,6.051l0.102-4.505C67.122,1.547,72.637,0,78.675,0c2.666,0,5.016,0.38,7.448,1.038L86.052,4.355"/>
	<path fill-rule="evenodd" clip-rule="evenodd" fill="#00A7B3" d="M27.515,40.092l-10.121-9.85
		c6.261-0.577,11.471-5.149,11.471-11.173c0-6.587-3.935-12.407-15.942-12.407c-7.574,0-12.804,0.339-12.804,0.339
		s0.37,3.762,0.37,5.641v27.45C0.489,42.568,0,45.248,0,45.248h7.639c0,0-0.489-2.68-0.489-5.644V28.376l10.796,11.248
		c2.201,2.476,6.122,5.624,6.122,5.624H34.15C34.15,45.248,29.649,42.114,27.515,40.092 M7.15,25.782V12.048
		c0,0,2.646-0.119,5.858-0.119c6.007,0,8.49,3.012,8.49,6.621c0,4.199-3.758,7.238-8.914,7.238
		C10.332,25.788,8.368,25.785,7.15,25.782z"/>
</g>
</svg>
